<?xml version="1.0" encoding="UTF-8" standalone="no"?>
<!-- Created with Inkscape (http://www.inkscape.org/) -->

<svg
   width="158.75mm"
   height="158.75mm"
   viewBox="0 0 158.75 158.75"
   version="1.1"
   id="svg1"
   xml:space="preserve"
   inkscape:version="1.4.3 (0d15f75, 2025-12-25)"
   sodipodi:docname="logo-hispakana.svg"
   xmlns:inkscape="http://www.inkscape.org/namespaces/inkscape"
   xmlns:sodipodi="http://sodipodi.sourceforge.net/DTD/sodipodi-0.dtd"
   xmlns="http://www.w3.org/2000/svg"
   xmlns:svg="http://www.w3.org/2000/svg"><sodipodi:namedview
     id="namedview1"
     pagecolor="#ffffff"
     bordercolor="#000000"
     borderopacity="0.25"
     inkscape:showpageshadow="2"
     inkscape:pageopacity="0.0"
     inkscape:pagecheckerboard="0"
     inkscape:deskcolor="#d1d1d1"
     inkscape:document-units="mm"
     inkscape:zoom="0.88333333"
     inkscape:cx="300"
     inkscape:cy="300"
     inkscape:window-width="1366"
     inkscape:window-height="745"
     inkscape:window-x="-8"
     inkscape:window-y="-8"
     inkscape:window-maximized="1"
     inkscape:current-layer="layer1" /><defs
     id="defs1" /><g
     inkscape:label="Capa 1"
     inkscape:groupmode="layer"
     id="layer1"
     transform="translate(-31.4485,-47.832901)"><g
       id="g1"
       transform="translate(154.10377,-5.0433962)"><circle
         style="fill:#bc002d;fill-opacity:1;stroke:none;stroke-width:6.81716;stroke-linecap:square"
         id="circle1"
         cx="-43.28027"
         cy="132.2513"
         r="79.375" /><path
         style="fill:#ffffff;stroke-width:1.9841"
         d="m -71.604428,153.92375 c -7.231931,-3.53281 -8.93806,-4.14127 -13.095824,-4.67045 -7.644207,-0.97293 -7.349628,-0.87563 -8.486895,-2.80316 -0.604218,-1.02409 -1.486905,-1.80688 -2.037434,-1.80688 -1.976939,0 -5.224479,-6.10357 -5.224479,-9.81912 0,-2.45576 1.497047,-5.53725 4.327447,-8.90759 1.229012,-1.46347 2.470802,-3.05398 2.759528,-3.53447 0.388309,-0.64623 1.823112,-1.01196 5.512072,-1.40503 5.687467,-0.606 7.336692,-1.47006 8.009084,-4.19603 0.243925,-0.98892 0.930147,-2.21142 1.52496,-2.71669 1.514485,-1.28652 6.731521,-1.20626 11.277832,0.17341 4.182783,1.26942 13.129573,6.14718 15.95172,8.69681 1.071533,0.96806 2.198146,1.76011 2.503618,1.76011 0.656959,0 7.979199,6.27679 7.979199,6.83996 0,0.21287 -0.53152,0.5486 -1.18115,0.74608 -0.89725,0.27273 -0.99189,0.43331 -0.39373,0.66805 1.82901,0.71772 7.748,4.66611 9.39758,6.26882 2.84074,2.76007 13.45401,6.15721 18.27302,5.84894 2.43035,-0.15556 2.52027,-0.2197 2.68282,-1.91657 0.21966,-2.2928 -1.4468,-4.80299 -7.0829,-10.66897 -4.54338,-4.72869 -5.10351,-5.98748 -3.56781,-8.01787 0.42392,-0.56047 0.77074,-1.86623 0.77074,-2.90173 0,-2.0139 1.20419,-4.21613 2.30541,-4.21613 0.36902,0 3.33611,0.84391 6.59348,1.87537 l 5.92253,1.87539 1.38238,-1.53137 c 0.76031,-0.84225 2.26632,-2.1692 3.34668,-2.94875 l 1.96432,-1.4174 -1.59994,-3.16949 c -0.87997,-1.74321 -1.5277,-3.38622 -1.43936,-3.65114 0.0883,-0.26492 2.16709,1.23098 4.61946,3.32418 2.45239,2.09321 5.14992,4.04208 5.99453,4.3308 1.30109,0.44478 1.84819,1.27981 3.58178,5.46696 2.58084,6.23351 3.45936,12.01563 2.60711,17.1589 -0.3443,2.07779 -1.04521,4.14427 -1.66732,4.91583 -0.59031,0.73212 -1.63472,2.1696 -2.32091,3.19439 -0.88723,1.32506 -2.36431,2.38653 -5.11346,3.67473 l -3.86587,1.81144 -11.81161,-0.0272 c -13.75076,-0.0315 -12.97001,0.15218 -26.80567,-6.31109 -13.112229,-6.12541 -20.617569,-8.3607 -21.776463,-6.48559 -0.191267,0.30948 -0.382376,2.81413 -0.424696,5.56588 l -0.07698,5.00319 -1.906979,1.65232 c -1.048836,0.90878 -2.31622,2.30198 -2.816412,3.09597 -0.500192,0.794 -1.177565,1.42675 -1.505259,1.4061 -0.327714,-0.0206 -2.616494,-1.02463 -5.086185,-2.23108 z"
         id="path2" /></g></g></svg>
